<svg width="229" height="50" viewBox="0 0 229 50" fill="none" xmlns="http://www.w3.org/2000/svg">
<path d="M26.8253 26.9137C20.8761 28.683 14.6874 29.5138 8.48217 29.3761H7.90356C5.24682 29.2776 2.60303 28.9564 0 28.4158C2.54107 29.4558 5.19286 30.2015 7.90356 30.6381V44.8649C8.06392 46.2776 8.73863 47.5817 9.799 48.5286C10.8594 49.4755 12.2312 49.9989 13.6527 49.9989C15.0743 49.9989 16.4461 49.4755 17.5064 48.5286C18.5668 47.5817 19.2415 46.2776 19.4019 44.8649V30.8967C22.149 30.5997 24.864 30.0578 27.5147 29.2776C37.4065 26.372 45.3962 20.5914 50.1974 13.6719C44.4298 19.354 36.317 24.1188 26.8253 26.9137Z" fill="#562B80"/>
<path d="M30.3957 19.6979L30.0326 19.7779C26.5373 20.5628 22.9805 21.0428 19.4022 21.2123V10.7469H42.9713C44.2339 10.5989 45.399 9.9947 46.2474 9.04782C47.0958 8.10094 47.569 6.87667 47.5781 5.60528C47.5872 4.33389 47.1315 3.10299 46.2967 2.1441C45.4619 1.1852 44.3055 0.564394 43.0451 0.398438H20.0793C17.0578 0.397936 14.1428 1.51486 11.8952 3.53435C9.64749 5.55384 8.2259 8.33324 7.90385 11.3379V20.572C6.40192 20.3135 4.92462 19.9872 3.52734 19.6055C6.53531 21.0468 9.72698 22.068 13.0128 22.6405C17.583 23.4422 22.2512 23.5149 26.8441 22.856C28.2044 22.6651 29.5709 22.4189 30.9497 22.1049C40.9954 19.7964 49.3113 14.496 54.5188 7.87812C48.4188 13.2032 40.0597 17.4817 30.3957 19.6979Z" fill="#562B80"/>
<path d="M51.7734 5.65747C52.7521 6.14381 53.6201 6.60552 54.5557 7.03644C54.6226 7.04966 54.6917 7.04766 54.7577 7.03061C54.8238 7.01357 54.8851 6.9819 54.9373 6.93795C55.5529 6.39621 56.113 5.84216 56.7039 5.28811L59.3938 2.73947H59.4308C59.4127 2.77969 59.3921 2.81875 59.3692 2.85644C58.1381 4.32775 56.9071 5.79291 55.7314 7.27038C55.6385 7.35565 55.574 7.46739 55.5467 7.59049C55.5467 8.36001 55.5467 9.12953 55.5467 9.9052H55.6206L56.7593 8.10761L59.32 9.38193L61.8252 0L51.7734 5.65747Z" fill="#562B80"/>
<path d="M66.6696 18.8303H57.0795V23.4781H65.5863V26.156H57.0795V33.0201H54.168V16.1523H66.6942L66.6696 18.8303Z" fill="#562B80"/>
<path d="M84.114 25.719C84.1353 26.8426 83.9603 27.9613 83.597 29.0248C83.288 29.9111 82.7903 30.7198 82.1381 31.3949C81.498 32.0372 80.7188 32.5238 79.8606 32.817C78.8951 33.1417 77.8815 33.2999 76.8629 33.2848C75.8545 33.2995 74.851 33.1413 73.896 32.817C73.0437 32.5192 72.2695 32.0331 71.6308 31.3949C70.9807 30.7397 70.4826 29.9495 70.172 29.0802C69.8193 28.0423 69.6526 26.9503 69.6796 25.8544V16.1523H72.6342V25.7436C72.5425 27.0413 72.9498 28.3252 73.7729 29.3326C74.1789 29.7523 74.6706 30.0795 75.2145 30.292C75.7583 30.5044 76.3416 30.5971 76.9245 30.5638C77.4941 30.5902 78.063 30.4988 78.5957 30.2955C79.1284 30.0921 79.6135 29.7811 80.0207 29.3818C80.7757 28.5939 81.1553 27.4221 81.1594 25.8667V16.1523H84.0956L84.114 25.719Z" fill="#562B80"/>
<path d="M95.323 33.0201H92.3315V18.898H86.9824V16.1523H100.672V18.898H95.323V33.0201Z" fill="#562B80"/>
<path d="M117.968 25.719C117.989 26.8426 117.814 27.9613 117.451 29.0248C117.142 29.9111 116.644 30.7198 115.992 31.3949C115.352 32.0372 114.573 32.5238 113.715 32.817C112.749 33.1422 111.736 33.3004 110.717 33.2848C109.709 33.2995 108.705 33.1413 107.75 32.817C106.898 32.5192 106.124 32.0331 105.485 31.3949C104.835 30.7397 104.337 29.9495 104.026 29.0802C103.671 28.0469 103.5 26.9592 103.521 25.8667V16.1523H106.488V25.7436C106.397 27.0413 106.804 28.3252 107.627 29.3326C108.033 29.7523 108.525 30.0795 109.069 30.292C109.612 30.5044 110.196 30.5971 110.779 30.5638C111.348 30.5902 111.917 30.4988 112.45 30.2955C112.983 30.0921 113.468 29.7811 113.875 29.3818C114.63 28.5939 115.009 27.4221 115.014 25.8667V16.1523H117.95L117.968 25.719Z" fill="#562B80"/>
<path d="M132.858 33.021L128.703 27.1419H124.955V33.021H122.019V16.1532H129.534C130.421 16.1407 131.303 16.2674 132.15 16.5287C132.872 16.748 133.544 17.1078 134.126 17.5876C134.661 18.0477 135.082 18.6249 135.357 19.2743C135.655 19.979 135.804 20.7378 135.794 21.5029C135.803 22.1455 135.701 22.7847 135.493 23.3928C135.301 23.9269 135.02 24.4245 134.662 24.8641C134.301 25.2938 133.873 25.6618 133.394 25.9537C132.887 26.2577 132.34 26.4878 131.769 26.6371L136.324 33.021H132.858ZM131.892 19.5452C131.135 19.0231 130.224 18.7715 129.307 18.8311H124.998V24.5132H129.35C130.259 24.5641 131.158 24.2915 131.886 23.7437C132.195 23.4931 132.441 23.1741 132.605 22.8119C132.77 22.4497 132.848 22.0543 132.834 21.6568C132.858 21.255 132.786 20.8532 132.622 20.4855C132.458 20.1179 132.207 19.7953 131.892 19.5452Z" fill="#562B80"/>
<path d="M155.609 33.0227H152.476L150.765 28.9351H142.806L141.07 33.0043H138.035L145.459 16.0195H148.204L155.609 33.0227ZM146.764 19.5778L143.87 26.3495H149.681L146.764 19.5778Z" fill="#562B80"/>
<path d="M165.729 16.1523H168.659V30.3484H177.528V33.0201H165.729V16.1523Z" fill="#562B80"/>
<path d="M196.789 33.0227H193.656L191.944 28.9351H183.942L182.207 33.0043H179.172L186.595 16.0195H189.341L196.789 33.0227ZM187.943 19.5778L185.05 26.3495H190.861L187.943 19.5778Z" fill="#562B80"/>
<path d="M211.273 17.311C211.756 17.6808 212.143 18.1612 212.402 18.7118C212.662 19.2624 212.785 19.8671 212.762 20.4752C212.77 20.9429 212.701 21.4086 212.559 21.8542C212.439 22.229 212.261 22.5823 212.03 22.9007C211.817 23.2012 211.56 23.467 211.266 23.6887C210.984 23.9044 210.686 24.0979 210.374 24.2674C210.842 24.4341 211.295 24.6401 211.728 24.883C212.119 25.1049 212.474 25.3851 212.781 25.7141C213.083 26.0459 213.316 26.4354 213.464 26.8591C213.63 27.3508 213.711 27.867 213.704 28.3858C213.716 29.0771 213.562 29.7612 213.255 30.3804C212.958 30.9616 212.525 31.4622 211.993 31.8394C211.397 32.2566 210.729 32.5593 210.023 32.7321C209.187 32.937 208.329 33.0363 207.469 33.0276H199.676V16.1536H207.228C208.668 16.0772 210.092 16.4846 211.273 17.311ZM208.958 22.7161C209.244 22.5257 209.474 22.2631 209.625 21.9549C209.777 21.6468 209.844 21.304 209.82 20.9616C209.835 20.652 209.774 20.3435 209.643 20.0626C209.512 19.7816 209.315 19.5366 209.069 19.3487C208.412 18.9326 207.641 18.7345 206.865 18.7823H202.618V23.2886H206.65C207.459 23.3278 208.261 23.1288 208.958 22.7161ZM209.9 29.8079C210.183 29.6161 210.412 29.3543 210.564 29.048C210.716 28.7416 210.786 28.4011 210.768 28.0596C210.78 27.7276 210.706 27.3981 210.554 27.1028C210.402 26.8074 210.177 26.5561 209.9 26.3728C209.113 25.9108 208.206 25.6963 207.296 25.7572H202.612V30.3866H207.536C208.364 30.4343 209.188 30.2327 209.9 29.8079Z" fill="#562B80"/>
<path d="M219.748 21.4285C219.894 21.7022 220.105 21.9351 220.364 22.1056C220.747 22.3529 221.161 22.5475 221.595 22.6843C222.118 22.8628 222.777 23.0475 223.583 23.2383C224.372 23.447 225.147 23.704 225.904 24.0079C226.523 24.2466 227.099 24.5856 227.609 25.0113C228.046 25.3888 228.394 25.8574 228.631 26.3841C228.877 26.968 228.997 27.5975 228.982 28.231C228.995 28.9712 228.844 29.7051 228.538 30.3794C228.255 30.9959 227.834 31.5392 227.307 31.9677C226.746 32.4214 226.099 32.7584 225.405 32.9589C224.618 33.1879 223.8 33.2999 222.98 33.2913C221.713 33.2936 220.456 33.0684 219.268 32.6264C218.047 32.1638 216.925 31.4722 215.963 30.5888L217.748 28.4649C218.487 29.1224 219.316 29.6716 220.21 30.0963C221.105 30.4857 222.072 30.6788 223.048 30.6626C223.817 30.7016 224.579 30.4993 225.227 30.084C225.483 29.9111 225.691 29.6768 225.833 29.4026C225.975 29.1283 226.046 28.8229 226.039 28.5141C226.05 28.2369 226.004 27.9604 225.904 27.7015C225.776 27.4324 225.576 27.2043 225.325 27.0428C224.967 26.8019 224.578 26.6113 224.168 26.4765C223.538 26.2579 222.897 26.0729 222.248 25.9224C221.431 25.7388 220.628 25.5045 219.841 25.2206C219.204 24.9987 218.609 24.672 218.08 24.2541C217.613 23.8799 217.24 23.4013 216.991 22.8567C216.722 22.2248 216.594 21.5422 216.615 20.8559C216.605 20.1629 216.752 19.4766 217.046 18.849C217.323 18.2347 217.726 17.6852 218.228 17.2361C218.772 16.7847 219.399 16.4458 220.075 16.2388C220.82 15.9982 221.6 15.8797 222.383 15.8879C223.518 15.8698 224.648 16.0532 225.719 16.4297C226.726 16.8016 227.665 17.3338 228.501 18.0056L226.913 20.2465C226.208 19.7212 225.439 19.2888 224.624 18.9598C223.895 18.6698 223.118 18.5194 222.334 18.5166C221.612 18.4738 220.897 18.6803 220.309 19.1014C220.086 19.2697 219.904 19.4873 219.779 19.7372C219.655 19.9871 219.589 20.2625 219.588 20.542C219.575 20.8457 219.63 21.1485 219.748 21.4285Z" fill="#562B80"/>
<path d="M58.8153 44.3242H55.2575V45.8817H58.4091V46.8359H55.2575V48.455H58.8584V49.4153H54.168V43.3516H58.8215L58.8153 44.3242Z" fill="#562B80"/>
<path d="M64.5646 43.3516H65.6603V49.403H64.7369L61.2776 45.0937V49.403H60.1758V43.3516H61.2037L64.5646 47.5377V43.3516Z" fill="#562B80"/>
<path d="M73.2921 49.4032H72.1287L71.5132 47.9442H68.5401L67.9246 49.4032H66.792L69.5558 43.3086H70.5837L73.2921 49.4032ZM69.999 44.5829L68.9402 47.0023H71.1008L69.999 44.5829Z" fill="#562B80"/>
<path d="M78.6971 43.7697C78.8755 43.8983 79.0195 44.069 79.1161 44.2666C79.2128 44.4642 79.2591 44.6826 79.2511 44.9024C79.2539 45.0695 79.2289 45.236 79.1772 45.3949C79.133 45.5302 79.0664 45.6571 78.9802 45.7704C78.9019 45.8796 78.8063 45.9753 78.6971 46.0536C78.5908 46.1335 78.4775 46.2036 78.3585 46.2629C78.5339 46.3195 78.703 46.3937 78.8633 46.4845C79.0103 46.5602 79.1434 46.6601 79.2572 46.78C79.37 46.8989 79.4579 47.0392 79.5157 47.1925C79.5752 47.3668 79.6043 47.5501 79.6019 47.7342C79.6069 47.9844 79.5498 48.2318 79.4357 48.4545C79.3243 48.6624 79.1637 48.84 78.9679 48.9716C78.7443 49.1243 78.4936 49.233 78.2293 49.2917C77.9192 49.3686 77.6007 49.4058 77.2813 49.4025H74.376V43.3511H77.189C77.7238 43.3229 78.2533 43.4698 78.6971 43.7697ZM77.8353 45.7089C77.9379 45.6433 78.0214 45.5519 78.0776 45.4438C78.1338 45.3358 78.1606 45.2149 78.1554 45.0933C78.1606 44.9816 78.1374 44.8705 78.0879 44.7704C78.0383 44.6702 77.9641 44.5843 77.8723 44.5207C77.6278 44.3674 77.3416 44.2942 77.0536 44.3114H75.4716V45.9305H76.9736C77.276 45.9392 77.5747 45.8624 77.8353 45.7089ZM78.1862 48.2513C78.2879 48.1848 78.3707 48.0933 78.4268 47.9854C78.4829 47.8776 78.5102 47.7572 78.5063 47.6357C78.5134 47.5138 78.4874 47.3922 78.431 47.2838C78.3747 47.1754 78.2901 47.0843 78.1862 47.0201C77.8913 46.8509 77.5527 46.7738 77.2136 46.7985H75.4716V48.4607H77.3183C77.6171 48.4694 77.9128 48.3971 78.1739 48.2513H78.1862Z" fill="#562B80"/>
<path d="M80.8574 43.3516H81.9531V48.4427H85.2585V49.403H80.8574V43.3516Z" fill="#562B80"/>
<path d="M91.1 44.3242H87.5422V45.8817H90.6937V46.8359H87.5422V48.455H91.1V49.4153H86.4219V43.3516H91.1V44.3242Z" fill="#562B80"/>
<path d="M103.184 49.4036H102.07V44.3248H100.075V43.3398H105.178V44.3248H103.184V49.4036Z" fill="#562B80"/>
<path d="M110.378 49.4031L108.833 47.2915H107.442V49.4031H106.347V43.3516H109.154C109.483 43.3499 109.81 43.3955 110.126 43.487C110.393 43.5649 110.642 43.6946 110.859 43.8687C111.061 44.0345 111.221 44.2453 111.326 44.4843C111.435 44.7371 111.489 45.0096 111.486 45.2846C111.49 45.5152 111.453 45.7445 111.376 45.9618C111.306 46.1566 111.199 46.3363 111.062 46.4912C110.929 46.6463 110.771 46.7775 110.594 46.8791C110.4 46.9863 110.193 47.069 109.978 47.1253L111.677 49.4154L110.378 49.4031ZM110.021 44.5705C109.736 44.3812 109.397 44.2904 109.055 44.312H107.442V46.3496H109.067C109.404 46.3674 109.736 46.2696 110.009 46.0726C110.123 45.9854 110.214 45.8723 110.275 45.7427C110.336 45.6131 110.365 45.4709 110.36 45.3277C110.37 45.1834 110.345 45.0388 110.285 44.9067C110.226 44.7747 110.136 44.6592 110.021 44.5705Z" fill="#562B80"/>
<path d="M118.861 49.4032H117.692L117.076 47.9442H114.103L113.457 49.4032H112.324L115.088 43.3086H116.116L118.861 49.4032ZM115.562 44.5829L114.491 47.0023H116.651L115.562 44.5829Z" fill="#562B80"/>
<path d="M124.339 43.3516H125.435V49.403H124.511L121.046 45.0937V49.403H119.95V43.3516H120.978L124.339 47.5377V43.3516Z" fill="#562B80"/>
<path d="M137.051 44.3242H133.474V45.9925H136.65V46.9529H133.48V49.4153H132.385V43.3516H137.057L137.051 44.3242Z" fill="#562B80"/>
<path d="M144.27 47.5792C144.113 47.9545 143.88 48.2938 143.587 48.5765C143.287 48.8666 142.934 49.0964 142.547 49.2536C142.125 49.4251 141.673 49.5109 141.217 49.506C140.763 49.5098 140.311 49.4263 139.888 49.2598C139.503 49.1047 139.152 48.8768 138.854 48.5888C138.562 48.301 138.33 47.9578 138.173 47.5794C138.015 47.2009 137.935 46.7948 137.937 46.3849C137.937 45.9741 138.019 45.5674 138.178 45.1889C138.338 44.8104 138.572 44.4677 138.866 44.181C139.166 43.889 139.519 43.6571 139.906 43.4977C140.762 43.1674 141.71 43.1674 142.565 43.4977C142.948 43.6439 143.296 43.8667 143.59 44.1526C143.883 44.4384 144.115 44.7812 144.27 45.1598C144.436 45.5489 144.52 45.9681 144.517 46.391C144.513 46.7994 144.43 47.2031 144.27 47.5792ZM143.199 45.5538C143.097 45.2994 142.947 45.0673 142.756 44.8705C142.564 44.6703 142.334 44.5112 142.079 44.4026C141.806 44.2877 141.513 44.2291 141.217 44.2302C140.921 44.226 140.627 44.2848 140.356 44.4026C140.106 44.5085 139.88 44.6634 139.691 44.8582C139.501 45.0547 139.353 45.287 139.254 45.5415C139.147 45.8055 139.093 46.0878 139.094 46.3726C139.093 46.6593 139.148 46.9434 139.254 47.2098C139.356 47.4642 139.506 47.6963 139.697 47.8931C139.889 48.0933 140.119 48.2524 140.374 48.361C140.646 48.4788 140.94 48.5375 141.236 48.5334C141.529 48.5365 141.82 48.4799 142.091 48.3671C142.346 48.263 142.574 48.1055 142.762 47.9054C142.952 47.7088 143.1 47.4766 143.199 47.2221C143.304 46.9577 143.356 46.6754 143.353 46.391C143.356 46.1047 143.304 45.8205 143.199 45.5538Z" fill="#562B80"/>
<path d="M149.885 49.4031L148.346 47.2916H146.955V49.4031H145.884V43.3517H148.685C149.016 43.3491 149.345 43.3948 149.663 43.4871C149.931 43.5664 150.182 43.696 150.402 43.8688C150.6 44.0364 150.758 44.2469 150.864 44.4844C150.972 44.7371 151.026 45.0097 151.024 45.2847C151.027 45.5152 150.99 45.7446 150.913 45.9619C150.843 46.1567 150.736 46.3363 150.599 46.4913C150.466 46.6463 150.308 46.7775 150.131 46.8791C149.937 46.9863 149.73 47.069 149.515 47.1254L151.214 49.4154L149.885 49.4031ZM149.528 44.5706C149.242 44.3813 148.903 44.2905 148.561 44.312H146.949V46.3497H148.574C148.91 46.3684 149.243 46.2706 149.515 46.0727C149.625 45.9808 149.714 45.8659 149.774 45.7362C149.835 45.6064 149.867 45.4649 149.867 45.3216C149.867 45.1784 149.835 45.0369 149.774 44.9071C149.714 44.7773 149.625 44.6624 149.515 44.5706H149.528Z" fill="#562B80"/>
<path d="M155.449 47.9132H155.412L153.442 45.0814V49.3907H152.347V43.3516H153.529L155.437 46.2142L157.351 43.3516H158.527V49.403H157.437V45.0937L155.449 47.9132Z" fill="#562B80"/>
<path d="M174.254 49.4032H173.084L172.469 47.9442H169.496L168.849 49.4032H167.717L170.487 43.3086H171.509L174.254 49.4032ZM170.955 44.5829L169.89 47.0023H172.056L170.955 44.5829Z" fill="#562B80"/>
<path d="M179.904 48.8776C179.727 49.0083 179.537 49.1217 179.338 49.2162C179.123 49.3128 178.898 49.385 178.667 49.4317C178.402 49.4832 178.131 49.508 177.861 49.5056C177.424 49.5083 176.991 49.4246 176.587 49.2593C176.213 49.1159 175.871 48.9028 175.577 48.6314C175.141 48.1879 174.844 47.6257 174.725 47.0148C174.606 46.404 174.669 45.7715 174.906 45.1963C175.056 44.8211 175.282 44.4814 175.571 44.199C175.865 43.9085 176.215 43.6803 176.599 43.528C177.015 43.3586 177.461 43.2749 177.91 43.2817C178.172 43.2776 178.434 43.3003 178.692 43.3494C178.915 43.39 179.134 43.454 179.344 43.5403C179.537 43.6223 179.72 43.7233 179.892 43.8419C180.06 43.9585 180.221 44.086 180.372 44.2236L179.658 45.0054C179.417 44.7897 179.148 44.6074 178.858 44.4637C178.559 44.3182 178.23 44.2465 177.898 44.2544C177.612 44.2508 177.328 44.3096 177.067 44.4268C176.82 44.5342 176.596 44.689 176.408 44.8823C176.22 45.0764 176.073 45.3068 175.977 45.5595C175.772 46.1009 175.772 46.6987 175.977 47.2401C176.073 47.4965 176.22 47.7309 176.408 47.9296C176.6 48.1296 176.832 48.2876 177.088 48.3935C177.345 48.4995 177.62 48.5511 177.898 48.5452C178.24 48.555 178.58 48.4832 178.889 48.3359C179.185 48.1788 179.46 47.9843 179.708 47.7572L180.415 48.4529C180.258 48.609 180.087 48.7512 179.904 48.8776Z" fill="#562B80"/>
<path d="M186.356 48.8805C186.178 49.0112 185.988 49.1246 185.789 49.2191C185.574 49.3156 185.349 49.3879 185.118 49.4345C184.853 49.4861 184.583 49.5108 184.312 49.5084C183.875 49.5112 183.442 49.4275 183.038 49.2622C182.665 49.1188 182.322 48.9057 182.028 48.6342C181.74 48.3522 181.512 48.0151 181.357 47.6431C181.195 47.2531 181.113 46.8343 181.117 46.4119C181.114 45.9901 181.194 45.5719 181.351 45.1806C181.509 44.8037 181.741 44.462 182.033 44.1755C182.325 43.8891 182.67 43.6636 183.05 43.5123C183.466 43.343 183.912 43.2592 184.361 43.2661C184.623 43.262 184.885 43.2847 185.143 43.3338C185.367 43.3744 185.585 43.4384 185.795 43.5246C185.988 43.6066 186.171 43.7077 186.343 43.8263C186.512 43.9428 186.672 44.0703 186.823 44.208L186.109 44.9898C185.867 44.7754 185.598 44.5933 185.309 44.4481C185.01 44.3033 184.681 44.2315 184.349 44.2388C184.063 44.2357 183.779 44.2945 183.518 44.4111C183.271 44.5186 183.047 44.6734 182.859 44.8667C182.671 45.0608 182.525 45.2912 182.428 45.5439C182.223 46.0853 182.223 46.6831 182.428 47.2245C182.524 47.4808 182.671 47.7153 182.859 47.914C183.052 48.114 183.283 48.272 183.54 48.3779C183.796 48.4839 184.072 48.5355 184.349 48.5296C184.691 48.5393 185.031 48.4676 185.34 48.3203C185.636 48.1631 185.912 47.9687 186.159 47.7416L186.866 48.4372C186.71 48.5998 186.539 48.7481 186.356 48.8805Z" fill="#562B80"/>
<path d="M192.664 44.3242H189.106V45.8817H192.264V46.8359H189.106V48.455H192.707V49.4153H188.011V43.3516H192.664V44.3242Z" fill="#562B80"/>
<path d="M194.044 43.3516H195.127V48.4427H198.432V49.403H194.031L194.044 43.3516Z" fill="#562B80"/>
<path d="M204.261 44.3242H200.703V45.8817H203.855V46.8359H200.703V48.455H204.304V49.4153H199.602V43.3516H204.261V44.3242Z" fill="#562B80"/>
<path d="M209.66 49.4031L208.109 47.2915H206.718V49.4031H205.622V43.3516H208.429C208.758 43.3495 209.086 43.3951 209.402 43.4871C209.67 43.5664 209.92 43.6959 210.14 43.8687C210.339 44.0364 210.496 44.2469 210.602 44.4844C210.713 44.7362 210.768 45.0094 210.762 45.2847C210.766 45.5152 210.728 45.7446 210.651 45.9618C210.581 46.1552 210.476 46.3344 210.343 46.4913C210.208 46.646 210.048 46.7771 209.869 46.8791C209.675 46.9863 209.468 47.069 209.254 47.1253L210.953 49.4154L209.66 49.4031ZM209.285 44.5705C208.999 44.3813 208.66 44.2905 208.318 44.312H206.705V46.3497H208.33C208.669 46.3673 209.003 46.2696 209.278 46.0726C209.392 45.9854 209.483 45.8723 209.544 45.7427C209.605 45.6132 209.634 45.4709 209.629 45.3277C209.638 45.183 209.611 45.0382 209.551 44.9062C209.491 44.7742 209.4 44.6589 209.285 44.5705Z" fill="#562B80"/>
<path d="M218.135 49.4032H216.972L216.356 47.9442H213.383L212.737 49.4032H211.604L214.374 43.3086H215.396L218.135 49.4032ZM214.824 44.5829L213.747 47.0023H215.907L214.824 44.5829Z" fill="#562B80"/>
<path d="M221.066 49.4036H219.951V44.3248H217.957V43.3398H223.06V44.3248H221.066V49.4036Z" fill="#562B80"/>
<path d="M228.883 44.3242H225.325V45.8817H228.477V46.8359H225.325V48.455H228.926V49.4153H224.229V43.3516H228.883V44.3242Z" fill="#562B80"/>
<path d="M97.0093 46.5659C97.0179 46.7891 96.9595 47.0098 96.8418 47.1997C96.724 47.3895 96.5522 47.5398 96.3484 47.6312C96.1446 47.7227 95.9181 47.7511 95.698 47.7129C95.478 47.6746 95.2743 47.5714 95.1133 47.4166C94.9523 47.2618 94.8413 47.0623 94.7944 46.8439C94.7476 46.6255 94.7671 46.398 94.8505 46.1908C94.9339 45.9835 95.0773 45.8059 95.2623 45.6808C95.4474 45.5557 95.6656 45.4887 95.889 45.4886C96.0334 45.4853 96.177 45.5106 96.3116 45.5631C96.4462 45.6155 96.5691 45.6941 96.6732 45.7942C96.7773 45.8943 96.8606 46.014 96.9183 46.1465C96.9759 46.2789 97.0069 46.4214 97.0093 46.5659Z" fill="#562B80"/>
<path d="M164.51 46.5658C164.519 46.7907 164.462 47.0134 164.344 47.2051C164.226 47.3969 164.053 47.549 163.848 47.6416C163.643 47.7343 163.415 47.7634 163.193 47.7252C162.971 47.6869 162.766 47.5831 162.604 47.4271C162.441 47.271 162.329 47.07 162.283 46.8498C162.236 46.6296 162.256 46.4004 162.34 46.1918C162.425 45.9831 162.57 45.8046 162.757 45.6792C162.944 45.5539 163.164 45.4874 163.389 45.4884C163.681 45.4835 163.962 45.594 164.172 45.7959C164.382 45.9978 164.503 46.2746 164.51 46.5658Z" fill="#562B80"/>
<path d="M131.209 48.5111C131.09 48.7554 130.912 48.9668 130.692 49.1267C130.459 49.299 130.196 49.4263 129.917 49.5023C129.603 49.5849 129.281 49.6262 128.956 49.6254C127.956 49.6122 126.985 49.2801 126.187 48.6774L126.857 47.6985C127.192 47.9411 127.559 48.1358 127.947 48.2772C128.288 48.4053 128.648 48.472 129.012 48.4742C129.277 48.49 129.541 48.4257 129.769 48.2895C129.852 48.2364 129.921 48.1625 129.967 48.0751C130.013 47.9877 130.036 47.8898 130.034 47.7909C130.036 47.6769 129.994 47.5665 129.917 47.4831C129.823 47.3864 129.712 47.3072 129.59 47.2491C129.439 47.1745 129.28 47.1148 129.116 47.0706L128.563 46.9044C128.322 46.8367 128.082 46.7566 127.836 46.6643C127.601 46.5853 127.379 46.4711 127.178 46.3257C126.984 46.1878 126.821 46.0118 126.697 45.8086C126.563 45.5797 126.496 45.3169 126.507 45.0514C126.502 44.7736 126.565 44.4988 126.691 44.2511C126.807 44.01 126.978 43.7992 127.19 43.6355C127.411 43.4615 127.664 43.3319 127.935 43.2538C128.225 43.1575 128.528 43.1035 128.833 43.0938C129.251 43.0974 129.665 43.1617 130.064 43.2846C130.473 43.4021 130.863 43.5784 131.222 43.8079L130.606 44.8421C130.303 44.6614 129.981 44.5148 129.646 44.405C129.36 44.3007 129.058 44.2445 128.753 44.2388C128.512 44.2244 128.272 44.2893 128.07 44.4235C127.996 44.4729 127.936 44.5398 127.894 44.6182C127.852 44.6966 127.83 44.784 127.83 44.8729C127.83 44.9278 127.841 44.9823 127.862 45.033C127.883 45.0838 127.914 45.1298 127.953 45.1684C128.051 45.262 128.163 45.339 128.286 45.3961C128.439 45.4698 128.598 45.5336 128.759 45.587L129.313 45.7594C129.554 45.8332 129.794 45.9194 130.034 46.0117C130.265 46.1033 130.484 46.2233 130.686 46.3688C130.879 46.5022 131.043 46.6741 131.166 46.8736C131.3 47.094 131.366 47.3486 131.357 47.6062C131.385 47.9155 131.334 48.2267 131.209 48.5111Z" fill="#562B80"/>
</svg>
